<?xml version="1.0" standalone="no"?><!DOCTYPE svg PUBLIC "-//W3C//DTD SVG 1.1//EN" "http://www.w3.org/Graphics/SVG/1.1/DTD/svg11.dtd"><svg width="100%" height="100%" viewBox="0 0 384 384" version="1.1" xmlns="http://www.w3.org/2000/svg" xmlns:xlink="http://www.w3.org/1999/xlink" xml:space="preserve" style="fill-rule:evenodd;clip-rule:evenodd;stroke-linejoin:round;stroke-miterlimit:1.41421;"><path d="M255.948,304.022l-124.488,0c-27.843,0 -50.449,-22.605 -50.449,-50.448l0,-124.488c0,-27.843 22.605,-50.448 50.449,-50.449l124.488,0c27.843,0.001 50.448,22.606 50.448,50.449l0,108.345c-0.344,0.296 -0.674,0.608 -0.989,0.936c-0.556,0.582 -1.06,1.215 -1.497,1.893c-0.511,0.792 -0.928,1.645 -1.238,2.536c-0.195,0.563 -0.347,1.141 -0.457,1.726c-0.056,0.302 -0.099,0.607 -0.134,0.912c-0.016,0.148 -0.016,0.148 -0.029,0.297c-0.012,0.141 -0.012,0.141 -0.021,0.282l-0.045,-0.058c-0.629,-0.827 -1.275,-1.641 -1.954,-2.427l0,-110.927c0,-26.27 -21.328,-47.598 -47.6,-47.599l-117.457,0c-26.271,0.001 -47.599,21.329 -47.599,47.599l0,117.457c0,26.271 21.329,47.6 47.599,47.6l117.457,0c1.377,0 2.741,-0.059 4.088,-0.174l4.069,6.327c-1.528,0.14 -3.076,0.211 -4.641,0.211Z" style="fill:#000;"/><path d="M264.515,304.48c0,0 1.324,1.89 1.263,2.862c-0.061,0.972 -1.34,0.933 -1.34,0.933l-9.087,-0.197c0,0 -18.286,0.936 -18.453,15.529c-0.051,4.439 3.091,5.448 4.162,5.448c1.071,0 13.573,0.027 13.573,0.027c0,0 19.447,0.778 29.889,6.422c10.442,5.645 14.371,9.508 25.12,10.93c11.627,1.539 15.56,-0.83 26.081,-7.652c10.522,-6.821 14.943,-15.17 16.359,-17.381c1.415,-2.212 3.345,-10.055 3.435,-15.206c0.089,-5.106 -0.333,-10.812 -1.904,-13.984c-6.593,-13.314 -31.018,-50.906 -31.018,-50.906c0,0 -4.894,-7.296 -12.212,-3.095c-7.318,4.201 -5.449,11.035 -4.511,12.813c0.937,1.778 9.024,16.567 9.024,16.567c0,0 0.401,1.506 -0.481,2.106c-0.882,0.599 -2.021,-0.669 -2.021,-0.669c0,0 -7.855,-14.476 -10.386,-18.04c-2.53,-3.565 -6.189,-8.742 -9.225,-9.397c-3.036,-0.655 -4.359,-0.26 -6.386,1.213c-2.028,1.474 -4.338,3.595 -4.261,5.786c0.077,2.192 0.905,3.704 1.672,4.817c0.767,1.112 13.891,22.851 13.891,22.851c0,0 0.348,1.671 -0.197,2.219c-0.546,0.547 -1.031,0.718 -1.974,-0.353c-0.942,-1.071 -17.026,-28.335 -17.026,-28.335c0,0 -3.46,-4.232 -7.375,-4.161c-3.915,0.071 -8.555,3.168 -9.788,6.598c-0.751,2.088 -0.553,4.786 -0.134,5.811c0.419,1.025 18.045,27.776 18.045,27.776c0,0 0.72,1.841 0.066,2.372c-0.654,0.531 -1.679,0.137 -2.465,-0.688c-0.787,-0.825 -35.878,-56.046 -35.878,-56.046c0,0 -2.501,-4.434 -6.443,-3.954c-3.942,0.479 -5.975,1.769 -7.01,2.377c-1.036,0.608 -4.562,3.525 -4.455,6.865c0.107,3.341 1.439,5.88 2.058,6.658c0.619,0.777 39.392,61.084 39.392,61.084Z" style="fill:#000;"/><path d="M192.805,147.516c24.209,0 43.864,19.655 43.864,43.864c0,24.21 -19.655,43.865 -43.864,43.865c-24.21,0 -43.865,-19.655 -43.865,-43.865c0,-24.209 19.655,-43.864 43.865,-43.864ZM192.805,159.962c17.34,0 31.418,14.078 31.418,31.418c0,17.341 -14.078,31.419 -31.418,31.419c-17.34,0 -31.419,-14.078 -31.419,-31.419c0,-17.34 14.079,-31.418 31.419,-31.418Z" style="fill:#00b5f0;"/><path d="M150.729,107.611c4.182,0 7.576,3.394 7.576,7.575c0,4.182 -3.394,7.576 -7.576,7.576c-4.181,0 -7.576,-3.394 -7.576,-7.576c0,-4.181 3.395,-7.575 7.576,-7.575ZM192.805,107.611c4.181,0 7.576,3.394 7.576,7.575c0,4.182 -3.395,7.576 -7.576,7.576c-4.182,0 -7.576,-3.394 -7.576,-7.576c0,-4.181 3.394,-7.575 7.576,-7.575ZM234.996,107.611c4.181,0 7.576,3.394 7.576,7.575c0,4.182 -3.395,7.576 -7.576,7.576c-4.182,0 -7.576,-3.394 -7.576,-7.576c0,-4.181 3.394,-7.575 7.576,-7.575Z" style="fill:#000;"/><g><path d="M282.745,55.023l0.274,0.001l0.014,0l0.278,0.003l0.014,0l0.277,0.004l0.014,0l0.277,0.006l0.014,0.001l0.277,0.008l0.014,0l0.277,0.009l0.014,0.001l0.277,0.011l0.014,0.001l0.276,0.013l0.014,0l0.276,0.015l0.014,0.001l0.276,0.016l0.014,0.001l0.275,0.018l0.014,0.001l0.276,0.019l0.014,0.001l0.275,0.022l0.014,0.001l0.274,0.023l0.014,0.001l0.275,0.025l0.014,0.001l0.274,0.027l0.014,0.001l0.274,0.028l0.014,0.002l0.273,0.029l0.014,0.002l0.274,0.031l0.013,0.002l0.273,0.033l0.014,0.002l0.273,0.035l0.014,0.001l0.272,0.037l0.014,0.002l0.272,0.038l0.014,0.002l0.271,0.04l0.014,0.002l0.272,0.041l0.013,0.002l0.271,0.043l0.014,0.003l0.271,0.044l0.013,0.003l0.27,0.046l0.014,0.002l0.27,0.048l0.014,0.003l0.269,0.05l0.014,0.002l0.269,0.052l0.013,0.002l0.269,0.053l0.014,0.003l0.268,0.054l0.014,0.003l0.268,0.056l0.013,0.003l0.267,0.058l0.014,0.003l0.267,0.06l0.014,0.003l0.266,0.061l0.014,0.003l0.266,0.063l0.013,0.003l0.266,0.064l0.013,0.003l0.266,0.066l0.013,0.004l0.265,0.067l0.013,0.004l0.264,0.069l0.014,0.003l0.264,0.071l0.013,0.004l0.263,0.072l0.013,0.004l0.263,0.074l0.014,0.003l0.262,0.076l0.013,0.004l0.262,0.077l0.013,0.004l0.262,0.079l0.013,0.004l0.26,0.08l0.014,0.004l0.26,0.082l0.013,0.004l0.26,0.084l0.013,0.004l0.259,0.085l0.013,0.004l0.259,0.087l0.013,0.004l0.258,0.088l0.013,0.005l0.257,0.09l0.013,0.004l0.257,0.091l0.013,0.005l0.257,0.093l0.012,0.005l0.256,0.094l0.013,0.005l0.255,0.096l0.013,0.005l0.255,0.097l0.013,0.005l0.254,0.099l0.012,0.005l0.254,0.101l0.012,0.005l0.253,0.102l0.013,0.006l0.252,0.103l0.013,0.006l0.251,0.105l0.013,0.005l0.251,0.107l0.012,0.005l0.25,0.109l0.013,0.005l0.249,0.11l0.013,0.006l0.249,0.111l0.012,0.006l0.249,0.113l0.012,0.005l0.248,0.115l0.012,0.006l0.247,0.116l0.012,0.005l0.246,0.118l0.013,0.006l0.245,0.119l0.012,0.006l0.245,0.12l0.012,0.006l0.244,0.122l0.013,0.007l0.243,0.123l0.012,0.006l0.243,0.125l0.012,0.007l0.242,0.126l0.012,0.007l0.241,0.128l0.012,0.006l0.24,0.129l0.012,0.007l0.24,0.131l0.012,0.007l0.239,0.132l0.012,0.007l0.238,0.134l0.012,0.006l0.237,0.136l0.012,0.007l0.236,0.136l0.012,0.008l0.236,0.138l0.012,0.007l0.234,0.14l0.012,0.007l0.234,0.141l0.012,0.007l0.233,0.143l0.012,0.007l0.232,0.144l0.012,0.008l0.232,0.145l0.011,0.008l0.231,0.147l0.011,0.007l0.23,0.149l0.012,0.007l0.229,0.15l0.012,0.008l0.228,0.151l0.011,0.008l0.227,0.153l0.012,0.008l0.226,0.154l0.012,0.008l0.225,0.156l0.011,0.007l0.225,0.158l0.011,0.008l0.224,0.158l0.011,0.008l0.223,0.16l0.011,0.009l0.222,0.161l0.011,0.008l0.221,0.163l0.011,0.008l0.22,0.165l0.012,0.008l0.219,0.166l0.011,0.008l0.218,0.167l0.011,0.009l0.217,0.168l0.011,0.009l0.216,0.17l0.011,0.008l0.216,0.172l0.01,0.008l0.215,0.173l0.011,0.009l0.213,0.174l0.011,0.009l0.212,0.175l0.011,0.009l0.211,0.177l0.011,0.009l0.21,0.179l0.011,0.008l0.209,0.18l0.011,0.009l0.208,0.182l0.011,0.009l0.207,0.182l0.01,0.009l0.207,0.184l0.01,0.01l0.206,0.185l0.01,0.009l0.204,0.187l0.01,0.009l0.204,0.188l0.01,0.01l0.202,0.189l0.01,0.01l0.201,0.19l0.01,0.01l0.2,0.192l0.011,0.01l0.198,0.193l0.01,0.01l0.198,0.195l0.01,0.01l0.197,0.196l0.01,0.009l0.195,0.198l0.01,0.01l0.194,0.198l0.01,0.01l0.193,0.2l0.01,0.01l0.191,0.2l0.01,0.01l0.19,0.202l0.01,0.01l0.188,0.203l0.01,0.01l0.187,0.204l0.01,0.01l0.186,0.205l0.009,0.01l0.185,0.206l0.009,0.011l0.183,0.206l0.009,0.011l0.182,0.208l0.009,0.01l0.181,0.209l0.009,0.011l0.179,0.21l0.009,0.01l0.178,0.211l0.009,0.011l0.176,0.212l0.009,0.01l0.175,0.213l0.009,0.011l0.173,0.214l0.009,0.011l0.172,0.214l0.009,0.011l0.171,0.216l0.008,0.011l0.17,0.217l0.008,0.011l0.168,0.218l0.008,0.01l0.167,0.219l0.008,0.011l0.166,0.22l0.008,0.011l0.164,0.221l0.008,0.011l0.162,0.221l0.008,0.011l0.161,0.223l0.008,0.011l0.16,0.223l0.007,0.011l0.159,0.224l0.008,0.012l0.156,0.225l0.008,0.011l0.155,0.226l0.008,0.012l0.154,0.226l0.007,0.012l0.153,0.228l0.007,0.011l0.151,0.229l0.008,0.011l0.149,0.23l0.008,0.011l0.147,0.23l0.008,0.012l0.146,0.231l0.008,0.012l0.145,0.232l0.007,0.012l0.144,0.232l0.007,0.012l0.142,0.233l0.007,0.012l0.141,0.235l0.007,0.012l0.139,0.235l0.007,0.012l0.137,0.236l0.007,0.011l0.137,0.237l0.007,0.012l0.134,0.238l0.007,0.012l0.133,0.238l0.007,0.012l0.132,0.239l0.006,0.012l0.131,0.24l0.006,0.012l0.129,0.241l0.006,0.012l0.128,0.242l0.006,0.012l0.126,0.242l0.006,0.012l0.124,0.243l0.007,0.012l0.122,0.244l0.007,0.012l0.121,0.245l0.006,0.012l0.12,0.245l0.006,0.012l0.118,0.246l0.006,0.012l0.117,0.247l0.006,0.012l0.115,0.247l0.006,0.013l0.113,0.248l0.006,0.012l0.112,0.249l0.006,0.012l0.111,0.249l0.005,0.013l0.109,0.25l0.006,0.012l0.107,0.251l0.006,0.012l0.106,0.252l0.005,0.012l0.105,0.252l0.005,0.012l0.103,0.253l0.005,0.013l0.102,0.253l0.005,0.013l0.1,0.253l0.005,0.013l0.098,0.254l0.005,0.013l0.097,0.255l0.005,0.012l0.095,0.256l0.005,0.013l0.094,0.256l0.004,0.013l0.092,0.257l0.005,0.012l0.091,0.258l0.004,0.013l0.089,0.258l0.005,0.013l0.087,0.258l0.004,0.013l0.086,0.259l0.005,0.013l0.084,0.259l0.004,0.013l0.083,0.26l0.004,0.013l0.081,0.261l0.004,0.013l0.08,0.261l0.004,0.013l0.078,0.262l0.004,0.013l0.076,0.262l0.004,0.014l0.075,0.262l0.004,0.013l0.073,0.263l0.003,0.014l0.072,0.263l0.004,0.013l0.07,0.264l0.003,0.014l0.069,0.264l0.003,0.013l0.067,0.265l0.003,0.014l0.065,0.265l0.004,0.014l0.063,0.266l0.003,0.013l0.062,0.266l0.003,0.014l0.061,0.266l0.003,0.014l0.059,0.268l0.002,0.013l0.057,0.267l0.003,0.014l0.056,0.268l0.003,0.014l0.053,0.268l0.003,0.014l0.052,0.269l0.003,0.013l0.05,0.269l0.003,0.014l0.049,0.27l0.002,0.013l0.048,0.27l0.002,0.014l0.046,0.27l0.002,0.014l0.044,0.271l0.002,0.013l0.042,0.271l0.003,0.014l0.04,0.272l0.002,0.014l0.039,0.272l0.002,0.013l0.038,0.272l0.001,0.014l0.036,0.272l0.002,0.014l0.034,0.273l0.002,0.014l0.032,0.273l0.002,0.014l0.03,0.273l0.002,0.014l0.029,0.274l0.001,0.013l0.028,0.274l0.001,0.015l0.026,0.274l0.001,0.014l0.024,0.274l0.001,0.014l0.022,0.275l0.001,0.014l0.021,0.275l0.001,0.014l0.019,0.276l0.001,0.013l0.017,0.276l0.001,0.014l0.015,0.276l0.001,0.014l0.014,0.276l0.001,0.014l0.012,0.277l0,0.013l0.011,0.277l0,0.014l0.009,0.277l0,0.014l0.007,0.277l0.001,0.014l0.005,0.277l0,0.014l0.004,0.277l0,0.014l0.002,0.278l0,0.014l0,0.302l-0.001,0.061l-0.001,0.032l-0.015,0.272l-0.032,0.27l-0.048,0.267l-0.065,0.264l-0.08,0.26l-0.095,0.254l-0.111,0.249l-0.126,0.241l-0.14,0.233l-0.153,0.224l-0.167,0.215l-0.18,0.204l-0.191,0.192l-0.203,0.181l-0.214,0.169l-0.223,0.155l-0.232,0.141l-0.24,0.127l-0.248,0.113l-0.254,0.097l-0.259,0.081l-0.264,0.066l-0.267,0.05l-0.27,0.034l-0.271,0.017l-0.272,0.001l-0.271,-0.016l-0.27,-0.031l-0.268,-0.049l-0.264,-0.064l-0.26,-0.08l-0.254,-0.095l-0.248,-0.111l-0.241,-0.126l-0.233,-0.14l-0.225,-0.153l-0.214,-0.167l-0.204,-0.18l-0.193,-0.192l-0.181,-0.202l-0.168,-0.214l-0.155,-0.223l-0.142,-0.232l-0.127,-0.241l-0.112,-0.247l-0.097,-0.254l-0.082,-0.259l-0.066,-0.264l-0.05,-0.267l-0.033,-0.27l-0.018,-0.271l-0.001,-0.272l-0.001,0.06l0,-0.188l-0.002,-0.235l-0.003,-0.236l-0.004,-0.235l-0.006,-0.235l-0.008,-0.235l-0.008,-0.235l-0.011,-0.235l-0.011,-0.234l-0.014,-0.234l-0.014,-0.234l-0.016,-0.235l-0.018,-0.233l-0.019,-0.233l-0.02,-0.233l-0.022,-0.233l-0.023,-0.233l-0.025,-0.232l-0.026,-0.232l-0.027,-0.232l-0.029,-0.231l-0.031,-0.232l-0.031,-0.231l-0.033,-0.231l-0.035,-0.23l-0.036,-0.23l-0.037,-0.23l-0.039,-0.23l-0.04,-0.229l-0.042,-0.228l-0.043,-0.229l-0.044,-0.229l-0.046,-0.227l-0.047,-0.227l-0.048,-0.228l-0.05,-0.227l-0.051,-0.226l-0.053,-0.226l-0.054,-0.226l-0.055,-0.225l-0.057,-0.225l-0.058,-0.224l-0.059,-0.225l-0.061,-0.223l-0.062,-0.224l-0.064,-0.223l-0.065,-0.222l-0.066,-0.222l-0.067,-0.221l-0.069,-0.221l-0.071,-0.221l-0.071,-0.22l-0.073,-0.22l-0.074,-0.22l-0.076,-0.218l-0.077,-0.218l-0.078,-0.218l-0.079,-0.217l-0.081,-0.217l-0.083,-0.217l-0.083,-0.216l-0.085,-0.215l-0.086,-0.215l-0.088,-0.214l-0.088,-0.214l-0.09,-0.213l-0.092,-0.212l-0.092,-0.212l-0.094,-0.212l-0.096,-0.211l-0.096,-0.21l-0.098,-0.21l-0.099,-0.209l-0.101,-0.208l-0.101,-0.208l-0.103,-0.208l-0.104,-0.207l-0.106,-0.206l-0.107,-0.205l-0.108,-0.205l-0.109,-0.204l-0.111,-0.204l-0.112,-0.203l-0.113,-0.202l-0.114,-0.202l-0.116,-0.201l-0.116,-0.2l-0.119,-0.2l-0.119,-0.199l-0.121,-0.198l-0.121,-0.198l-0.123,-0.196l-0.125,-0.196l-0.125,-0.196l-0.127,-0.195l-0.128,-0.194l-0.129,-0.193l-0.131,-0.192l-0.131,-0.192l-0.133,-0.191l-0.134,-0.19l-0.136,-0.19l-0.136,-0.189l-0.138,-0.188l-0.139,-0.187l-0.14,-0.186l-0.141,-0.185l-0.143,-0.185l-0.144,-0.184l-0.145,-0.183l-0.146,-0.183l-0.147,-0.181l-0.149,-0.181l-0.149,-0.18l-0.151,-0.179l-0.152,-0.178l-0.153,-0.177l-0.155,-0.176l-0.155,-0.176l-0.157,-0.175l-0.158,-0.174l-0.159,-0.173l-0.16,-0.172l-0.162,-0.171l-0.162,-0.17l-0.164,-0.169l-0.165,-0.169l-0.166,-0.167l-0.167,-0.167l-0.168,-0.165l-0.169,-0.164l-0.169,-0.163l-0.171,-0.162l-0.172,-0.161l-0.172,-0.159l-0.174,-0.159l-0.174,-0.157l-0.175,-0.156l-0.176,-0.155l-0.177,-0.154l-0.178,-0.152l-0.178,-0.152l-0.18,-0.15l-0.18,-0.149l-0.181,-0.148l-0.182,-0.146l-0.183,-0.146l-0.183,-0.144l-0.185,-0.143l-0.185,-0.142l-0.186,-0.14l-0.187,-0.14l-0.187,-0.138l-0.189,-0.137l-0.189,-0.136l-0.189,-0.135l-0.191,-0.133l-0.192,-0.132l-0.192,-0.131l-0.193,-0.13l-0.193,-0.129l-0.194,-0.127l-0.196,-0.126l-0.195,-0.125l-0.197,-0.123l-0.197,-0.123l-0.198,-0.121l-0.199,-0.12l-0.199,-0.119l-0.2,-0.117l-0.2,-0.116l-0.202,-0.115l-0.202,-0.114l-0.202,-0.112l-0.204,-0.111l-0.204,-0.11l-0.204,-0.109l-0.205,-0.107l-0.206,-0.106l-0.207,-0.105l-0.207,-0.103l-0.208,-0.103l-0.208,-0.101l-0.209,-0.099l-0.209,-0.099l-0.21,-0.097l-0.211,-0.096l-0.211,-0.094l-0.212,-0.093l-0.212,-0.092l-0.213,-0.091l-0.214,-0.089l-0.214,-0.089l-0.214,-0.086l-0.215,-0.086l-0.216,-0.084l-0.216,-0.083l-0.216,-0.081l-0.218,-0.08l-0.217,-0.079l-0.218,-0.078l-0.219,-0.076l-0.219,-0.075l-0.219,-0.073l-0.22,-0.072l-0.221,-0.071l-0.221,-0.07l-0.221,-0.068l-0.222,-0.067l-0.222,-0.065l-0.223,-0.064l-0.223,-0.063l-0.224,-0.061l-0.223,-0.06l-0.225,-0.059l-0.225,-0.057l-0.225,-0.056l-0.225,-0.055l-0.226,-0.053l-0.226,-0.052l-0.227,-0.051l-0.227,-0.049l-0.228,-0.047l-0.227,-0.047l-0.228,-0.045l-0.229,-0.043l-0.228,-0.042l-0.229,-0.041l-0.23,-0.04l-0.23,-0.038l-0.23,-0.036l-0.23,-0.035l-0.231,-0.034l-0.23,-0.032l-0.232,-0.031l-0.231,-0.03l-0.232,-0.028l-0.232,-0.027l-0.232,-0.025l-0.233,-0.024l-0.233,-0.022l-0.233,-0.021l-0.233,-0.02l-0.233,-0.018l-0.234,-0.017l-0.234,-0.015l-0.234,-0.014l-0.235,-0.012l-0.234,-0.011l-0.235,-0.01l-0.235,-0.008l-0.235,-0.006l-0.236,-0.005l-0.235,-0.004l-0.236,-0.002l-0.243,-0.001l-0.111,0l-0.271,-0.008l-0.271,-0.025l-0.269,-0.041l-0.266,-0.057l-0.262,-0.073l-0.256,-0.088l-0.252,-0.104l-0.244,-0.119l-0.237,-0.134l-0.228,-0.147l-0.219,-0.162l-0.209,-0.174l-0.198,-0.186l-0.186,-0.198l-0.174,-0.209l-0.161,-0.219l-0.148,-0.228l-0.133,-0.237l-0.119,-0.244l-0.104,-0.251l-0.089,-0.257l-0.073,-0.262l-0.057,-0.266l-0.041,-0.268l-0.025,-0.271l-0.008,-0.272l0.008,-0.272l0.025,-0.27l0.041,-0.269l0.057,-0.266l0.073,-0.262l0.089,-0.257l0.104,-0.251l0.119,-0.244l0.133,-0.237l0.148,-0.228l0.161,-0.219l0.174,-0.209l0.186,-0.198l0.198,-0.186l0.209,-0.174l0.219,-0.161l0.228,-0.148l0.237,-0.133l0.244,-0.119l0.252,-0.104l0.256,-0.089l0.262,-0.073l0.266,-0.057l0.269,-0.041l0.271,-0.025l0.271,-0.008l0.122,0l0.007,0Z" style="fill:#000;"/><path d="M282.809,29.5l0.217,0.001l0.007,0l0.218,0.001l0.007,0l0.218,0.001l0.007,0l0.218,0.003l0.007,0l0.218,0.003l0.006,0l0.218,0.004l0.007,0l0.218,0.004l0.007,0l0.218,0.005l0.007,0.001l0.217,0.005l0.007,0.001l0.218,0.006l0.007,0l0.217,0.007l0.007,0.001l0.217,0.007l0.007,0.001l0.217,0.008l0.007,0l0.218,0.009l0.007,0.001l0.217,0.009l0.007,0.001l0.217,0.01l0.006,0.001l0.217,0.011l0.007,0l0.217,0.012l0.007,0l0.217,0.013l0.007,0l0.216,0.013l0.007,0.001l0.217,0.013l0.007,0.001l0.216,0.014l0.007,0.001l0.216,0.015l0.007,0l0.216,0.016l0.007,0.001l0.216,0.016l0.007,0.001l0.216,0.017l0.007,0l0.216,0.018l0.007,0.001l0.216,0.018l0.007,0.001l0.215,0.019l0.007,0l0.216,0.02l0.007,0.001l0.215,0.02l0.007,0.001l0.215,0.021l0.007,0.001l0.215,0.021l0.007,0.001l0.215,0.023l0.007,0l0.215,0.023l0.007,0.001l0.215,0.024l0.007,0.001l0.215,0.024l0.006,0.001l0.215,0.025l0.007,0.001l0.214,0.025l0.007,0.001l0.215,0.027l0.007,0l0.214,0.027l0.007,0.001l0.214,0.028l0.007,0.001l0.214,0.028l0.006,0.001l0.214,0.029l0.007,0.001l0.214,0.03l0.007,0l0.213,0.031l0.007,0.001l0.214,0.031l0.006,0.001l0.214,0.031l0.007,0.001l0.213,0.032l0.007,0.001l0.213,0.033l0.006,0.001l0.213,0.034l0.007,0.001l0.213,0.034l0.007,0.001l0.212,0.035l0.007,0.001l0.213,0.036l0.006,0.001l0.213,0.036l0.007,0.001l0.212,0.037l0.007,0.001l0.212,0.037l0.006,0.002l0.212,0.038l0.007,0.001l0.212,0.039l0.006,0.001l0.212,0.039l0.007,0.001l0.211,0.04l0.007,0.002l0.211,0.04l0.007,0.002l0.211,0.041l0.007,0.001l0.211,0.042l0.007,0.002l0.21,0.042l0.007,0.001l0.211,0.044l0.006,0.001l0.211,0.044l0.007,0.001l0.21,0.045l0.007,0.001l0.21,0.045l0.007,0.002l0.209,0.046l0.007,0.001l0.21,0.046l0.007,0.002l0.209,0.047l0.007,0.001l0.209,0.048l0.007,0.002l0.209,0.048l0.007,0.001l0.209,0.049l0.007,0.002l0.209,0.049l0.007,0.002l0.208,0.05l0.007,0.002l0.208,0.051l0.007,0.001l0.209,0.052l0.006,0.001l0.208,0.053l0.007,0.001l0.208,0.053l0.007,0.002l0.208,0.053l0.006,0.002l0.208,0.054l0.007,0.001l0.207,0.055l0.007,0.002l0.207,0.055l0.007,0.002l0.207,0.056l0.006,0.002l0.207,0.056l0.007,0.002l0.206,0.057l0.007,0.002l0.207,0.058l0.006,0.001l0.207,0.059l0.006,0.002l0.206,0.059l0.007,0.002l0.206,0.059l0.006,0.002l0.206,0.06l0.007,0.002l0.205,0.061l0.007,0.002l0.205,0.062l0.007,0.002l0.205,0.062l0.006,0.002l0.205,0.063l0.007,0.002l0.204,0.063l0.007,0.002l0.204,0.064l0.007,0.002l0.204,0.065l0.007,0.002l0.204,0.065l0.006,0.002l0.204,0.066l0.007,0.002l0.203,0.067l0.007,0.002l0.203,0.067l0.007,0.002l0.203,0.068l0.007,0.002l0.203,0.068l0.006,0.002l0.203,0.069l0.006,0.002l0.203,0.07l0.006,0.002l0.203,0.07l0.006,0.003l0.202,0.07l0.007,0.003l0.202,0.071l0.006,0.002l0.202,0.072l0.006,0.003l0.202,0.072l0.006,0.003l0.201,0.073l0.007,0.002l0.201,0.074l0.006,0.002l0.201,0.075l0.006,0.002l0.201,0.075l0.006,0.003l0.2,0.076l0.007,0.002l0.2,0.076l0.006,0.003l0.2,0.077l0.006,0.002l0.2,0.078l0.006,0.002l0.2,0.078l0.006,0.003l0.199,0.078l0.006,0.003l0.199,0.079l0.007,0.003l0.198,0.08l0.007,0.002l0.198,0.081l0.006,0.002l0.198,0.082l0.007,0.002l0.197,0.082l0.007,0.003l0.197,0.082l0.007,0.003l0.197,0.083l0.006,0.002l0.197,0.084l0.007,0.002l0.196,0.085l0.007,0.002l0.197,0.085l0.006,0.003l0.196,0.085l0.006,0.003l0.196,0.086l0.007,0.003l0.195,0.086l0.007,0.003l0.195,0.087l0.007,0.003l0.195,0.088l0.006,0.003l0.195,0.088l0.006,0.003l0.195,0.089l0.006,0.003l0.195,0.089l0.006,0.003l0.194,0.09l0.006,0.003l0.194,0.091l0.006,0.003l0.194,0.091l0.006,0.003l0.194,0.092l0.006,0.003l0.193,0.092l0.006,0.003l0.193,0.093l0.006,0.003l0.193,0.094l0.006,0.003l0.192,0.094l0.006,0.004l0.192,0.094l0.006,0.003l0.192,0.096l0.006,0.003l0.192,0.096l0.006,0.003l0.191,0.097l0.006,0.003l0.191,0.097l0.006,0.003l0.191,0.098l0.006,0.003l0.19,0.099l0.006,0.003l0.19,0.099l0.006,0.003l0.19,0.1l0.006,0.003l0.189,0.1l0.006,0.003l0.189,0.101l0.006,0.003l0.189,0.102l0.006,0.003l0.189,0.102l0.006,0.003l0.188,0.103l0.006,0.003l0.188,0.103l0.006,0.003l0.188,0.104l0.006,0.003l0.187,0.105l0.006,0.003l0.187,0.105l0.006,0.003l0.187,0.106l0.006,0.003l0.186,0.106l0.006,0.003l0.186,0.107l0.006,0.004l0.186,0.107l0.006,0.003l0.185,0.108l0.006,0.003l0.185,0.109l0.006,0.003l0.185,0.109l0.006,0.004l0.185,0.109l0.006,0.004l0.184,0.11l0.006,0.003l0.184,0.111l0.006,0.003l0.183,0.112l0.006,0.003l0.183,0.112l0.006,0.004l0.183,0.112l0.006,0.004l0.183,0.113l0.005,0.003l0.183,0.114l0.006,0.003l0.181,0.114l0.006,0.004l0.182,0.115l0.006,0.003l0.181,0.116l0.006,0.003l0.181,0.116l0.006,0.004l0.18,0.116l0.006,0.004l0.18,0.117l0.006,0.004l0.18,0.117l0.006,0.004l0.18,0.118l0.005,0.004l0.18,0.118l0.005,0.004l0.179,0.119l0.006,0.004l0.179,0.12l0.005,0.004l0.179,0.12l0.005,0.004l0.178,0.121l0.006,0.004l0.177,0.121l0.006,0.004l0.178,0.122l0.005,0.004l0.177,0.123l0.006,0.004l0.176,0.123l0.006,0.004l0.176,0.123l0.006,0.004l0.176,0.125l0.005,0.004l0.176,0.125l0.005,0.004l0.176,0.125l0.005,0.004l0.175,0.126l0.006,0.004l0.174,0.127l0.006,0.004l0.174,0.127l0.005,0.004l0.174,0.127l0.005,0.004l0.174,0.129l0.005,0.004l0.173,0.128l0.006,0.005l0.172,0.129l0.006,0.004l0.172,0.13l0.006,0.004l0.171,0.13l0.006,0.005l0.172,0.131l0.005,0.004l0.171,0.132l0.006,0.004l0.17,0.132l0.006,0.004l0.17,0.133l0.006,0.004l0.17,0.133l0.005,0.004l0.17,0.134l0.005,0.004l0.17,0.135l0.005,0.004l0.169,0.135l0.005,0.004l0.169,0.135l0.005,0.005l0.168,0.136l0.006,0.004l0.167,0.137l0.006,0.004l0.167,0.137l0.006,0.005l0.167,0.137l0.005,0.004l0.166,0.138l0.006,0.005l0.166,0.139l0.005,0.004l0.166,0.139l0.005,0.005l0.166,0.14l0.005,0.004l0.165,0.14l0.005,0.005l0.165,0.141l0.005,0.004l0.165,0.142l0.005,0.004l0.164,0.142l0.005,0.005l0.163,0.142l0.005,0.005l0.163,0.143l0.006,0.004l0.162,0.144l0.006,0.005l0.162,0.144l0.005,0.004l0.162,0.145l0.005,0.005l0.162,0.145l0.005,0.004l0.161,0.146l0.005,0.005l0.16,0.146l0.006,0.005l0.16,0.146l0.005,0.005l0.159,0.147l0.006,0.005l0.159,0.148l0.005,0.005l0.159,0.148l0.005,0.005l0.159,0.149l0.005,0.005l0.158,0.149l0.005,0.005l0.158,0.15l0.005,0.005l0.157,0.15l0.005,0.005l0.157,0.151l0.005,0.005l0.156,0.152l0.005,0.005l0.156,0.152l0.005,0.004l0.156,0.153l0.005,0.005l0.155,0.153l0.005,0.005l0.155,0.154l0.005,0.005l0.154,0.154l0.005,0.005l0.154,0.155l0.005,0.005l0.153,0.155l0.005,0.005l0.153,0.155l0.005,0.005l0.152,0.156l0.005,0.005l0.151,0.157l0.005,0.005l0.151,0.157l0.005,0.005l0.151,0.157l0.005,0.005l0.15,0.158l0.005,0.005l0.149,0.158l0.005,0.005l0.149,0.158l0.005,0.006l0.148,0.159l0.005,0.005l0.148,0.159l0.005,0.005l0.147,0.16l0.005,0.005l0.147,0.16l0.005,0.006l0.146,0.16l0.004,0.005l0.146,0.161l0.005,0.005l0.145,0.162l0.005,0.005l0.144,0.162l0.005,0.005l0.144,0.162l0.005,0.005l0.143,0.163l0.005,0.005l0.143,0.163l0.005,0.005l0.142,0.164l0.005,0.005l0.142,0.164l0.005,0.005l0.141,0.164l0.005,0.006l0.14,0.164l0.005,0.005l0.14,0.166l0.005,0.005l0.14,0.165l0.004,0.006l0.14,0.165l0.004,0.006l0.139,0.166l0.004,0.005l0.138,0.167l0.005,0.005l0.138,0.167l0.004,0.006l0.137,0.167l0.004,0.005l0.137,0.168l0.004,0.005l0.136,0.168l0.005,0.006l0.135,0.168l0.005,0.006l0.135,0.169l0.004,0.005l0.134,0.169l0.004,0.006l0.134,0.169l0.004,0.006l0.134,0.17l0.004,0.005l0.133,0.171l0.004,0.005l0.132,0.171l0.004,0.005l0.132,0.171l0.004,0.006l0.131,0.171l0.004,0.006l0.131,0.172l0.004,0.005l0.13,0.173l0.004,0.005l0.13,0.173l0.004,0.005l0.129,0.173l0.004,0.006l0.128,0.173l0.004,0.006l0.128,0.173l0.004,0.006l0.127,0.174l0.004,0.006l0.127,0.174l0.004,0.006l0.126,0.174l0.004,0.006l0.125,0.175l0.004,0.006l0.125,0.175l0.004,0.006l0.124,0.176l0.004,0.005l0.124,0.177l0.004,0.005l0.124,0.177l0.003,0.005l0.123,0.177l0.004,0.006l0.122,0.177l0.004,0.006l0.122,0.177l0.004,0.006l0.12,0.178l0.004,0.006l0.121,0.178l0.004,0.006l0.119,0.178l0.004,0.006l0.119,0.179l0.004,0.006l0.119,0.179l0.004,0.006l0.118,0.179l0.004,0.006l0.117,0.18l0.004,0.006l0.117,0.18l0.004,0.006l0.116,0.181l0.004,0.006l0.116,0.18l0.003,0.006l0.116,0.181l0.004,0.006l0.114,0.182l0.004,0.006l0.114,0.182l0.004,0.006l0.113,0.182l0.004,0.006l0.113,0.182l0.003,0.006l0.113,0.183l0.004,0.006l0.111,0.183l0.004,0.006l0.111,0.183l0.004,0.007l0.111,0.183l0.003,0.006l0.11,0.184l0.004,0.007l0.109,0.184l0.004,0.006l0.109,0.185l0.003,0.006l0.109,0.185l0.003,0.005l0.108,0.186l0.003,0.006l0.108,0.186l0.003,0.006l0.107,0.186l0.003,0.006l0.106,0.186l0.004,0.006l0.105,0.187l0.003,0.006l0.105,0.187l0.004,0.006l0.104,0.187l0.003,0.006l0.104,0.188l0.003,0.006l0.104,0.188l0.003,0.006l0.103,0.188l0.003,0.006l0.102,0.188l0.003,0.006l0.101,0.189l0.004,0.006l0.101,0.19l0.003,0.006l0.1,0.189l0.003,0.006l0.1,0.19l0.003,0.006l0.099,0.19l0.004,0.006l0.101,0.196l0.098,0.191l0.003,0.006l0.1,0.197l0.097,0.191l0.003,0.006l0.099,0.198l0.096,0.191l0.003,0.006l0.095,0.192l0.003,0.007l0.095,0.192l0.003,0.006l0.096,0.199l0.093,0.192l0.003,0.007l0.093,0.193l0.003,0.006l0.092,0.193l0.003,0.007l0.091,0.193l0.003,0.006l0.091,0.194l0.003,0.007l0.093,0.2l0.089,0.194l0.003,0.007l0.089,0.194l0.003,0.006l0.089,0.195l0.003,0.007l0.09,0.201l0.087,0.195l0.003,0.007l0.087,0.196l0.003,0.006l0.086,0.196l0.002,0.006l0.086,0.197l0.003,0.006l0.084,0.197l0.003,0.006l0.084,0.196l0.003,0.007l0.083,0.197l0.003,0.006l0.083,0.197l0.003,0.007l0.082,0.197l0.003,0.007l0.082,0.198l0.002,0.006l0.081,0.198l0.003,0.006l0.081,0.199l0.002,0.006l0.08,0.198l0.003,0.007l0.079,0.199l0.003,0.006l0.079,0.199l0.002,0.006l0.078,0.2l0.003,0.006l0.077,0.2l0.003,0.006l0.077,0.199l0.002,0.007l0.077,0.2l0.002,0.007l0.078,0.206l0.075,0.201l0.003,0.006l0.076,0.207l0.074,0.201l0.003,0.007l0.075,0.207l0.073,0.201l0.002,0.007l0.072,0.202l0.003,0.006l0.071,0.202l0.003,0.007l0.07,0.202l0.003,0.006l0.07,0.202l0.002,0.007l0.07,0.202l0.002,0.007l0.069,0.203l0.002,0.006l0.068,0.203l0.003,0.007l0.067,0.203l0.003,0.006l0.067,0.203l0.002,0.007l0.066,0.204l0.003,0.006l0.065,0.204l0.003,0.007l0.065,0.204l0.002,0.006l0.065,0.204l0.002,0.007l0.064,0.204l0.002,0.007l0.063,0.205l0.002,0.006l0.063,0.205l0.002,0.007l0.062,0.205l0.002,0.006l0.062,0.206l0.002,0.006l0.061,0.205l0.002,0.007l0.06,0.206l0.002,0.006l0.059,0.206l0.002,0.007l0.059,0.206l0.002,0.007l0.059,0.206l0.002,0.006l0.057,0.207l0.002,0.006l0.057,0.207l0.002,0.007l0.057,0.207l0.002,0.006l0.056,0.207l0.001,0.007l0.056,0.207l0.001,0.007l0.055,0.207l0.002,0.007l0.054,0.208l0.002,0.006l0.053,0.208l0.002,0.007l0.053,0.208l0.001,0.006l0.052,0.208l0.002,0.007l0.052,0.209l0.001,0.006l0.051,0.208l0.002,0.007l0.05,0.209l0.002,0.007l0.049,0.209l0.002,0.006l0.049,0.209l0.001,0.007l0.049,0.209l0.001,0.007l0.048,0.21l0.001,0.006l0.047,0.209l0.002,0.007l0.046,0.21l0.002,0.007l0.046,0.21l0.001,0.007l0.045,0.21l0.002,0.006l0.044,0.211l0.002,0.006l0.044,0.211l0.001,0.007l0.043,0.21l0.002,0.007l0.042,0.21l0.001,0.007l0.042,0.211l0.002,0.007l0.041,0.211l0.001,0.007l0.041,0.211l0.001,0.007l0.04,0.211l0.002,0.007l0.039,0.211l0.001,0.007l0.039,0.212l0.001,0.007l0.038,0.211l0.002,0.007l0.037,0.212l0.001,0.007l0.037,0.212l0.001,0.007l0.036,0.212l0.002,0.007l0.036,0.219l0.035,0.212l0.001,0.007l0.034,0.213l0.002,0.007l0.033,0.213l0.001,0.007l0.033,0.213l0.001,0.007l0.032,0.213l0.002,0.007l0.031,0.213l0.001,0.006l0.031,0.214l0.001,0.007l0.03,0.214l0.001,0.006l0.03,0.214l0.001,0.007l0.029,0.214l0.001,0.006l0.028,0.214l0.001,0.007l0.028,0.214l0.001,0.007l0.027,0.214l0.001,0.007l0.026,0.214l0.001,0.007l0.026,0.215l0.001,0.007l0.025,0.214l0,0.007l0.025,0.215l0.001,0.006l0.023,0.215l0.001,0.007l0.023,0.215l0.001,0.007l0.023,0.215l0,0.007l0.022,0.215l0.001,0.007l0.021,0.216l0.001,0.006l0.02,0.216l0.001,0.006l0.019,0.216l0.001,0.007l0.019,0.216l0.001,0.006l0.018,0.216l0.001,0.007l0.018,0.216l0,0.007l0.018,0.216l0,0.007l0.017,0.216l0,0.007l0.016,0.216l0,0.006l0.016,0.217l0,0.007l0.015,0.216l0,0.007l0.014,0.216l0,0.007l0.014,0.217l0,0.007l0.013,0.217l0,0.007l0.012,0.216l0,0.007l0.011,0.217l0.001,0.007l0.01,0.217l0.001,0.007l0.009,0.217l0.001,0.007l0.009,0.217l0,0.007l0.009,0.217l0,0.007l0.008,0.217l0,0.007l0.007,0.217l0,0.007l0.007,0.218l0,0.007l0.006,0.217l0,0.007l0.005,0.218l0,0.007l0.005,0.217l0,0.007l0.004,0.218l0,0.007l0.003,0.218l0,0.007l0.003,0.218l0,0.007l0.001,0.218l0,0.007l0.002,0.218l0,0.007l0,0.218l0,0.007l0,0.212l0,-0.002l-0.014,0.344l-0.039,0.343l-0.066,0.338l-0.091,0.332l-0.117,0.325l-0.141,0.314l-0.164,0.303l-0.188,0.29l-0.209,0.274l-0.229,0.257l-0.248,0.239l-0.266,0.219l-0.282,0.199l-0.297,0.176l-0.309,0.153l-0.319,0.129l-0.329,0.104l-0.336,0.078l-0.34,0.053l-0.344,0.026l-0.345,0l-0.343,-0.026l-0.341,-0.053l-0.336,-0.078l-0.328,-0.104l-0.32,-0.129l-0.309,-0.153l-0.296,-0.176l-0.282,-0.199l-0.266,-0.219l-0.249,-0.239l-0.229,-0.257l-0.209,-0.274l-0.187,-0.29l-0.165,-0.303l-0.141,-0.314l-0.117,-0.325l-0.091,-0.332l-0.066,-0.338l-0.039,-0.343l-0.013,-0.344l0,-0.002l0,-0.003l0,-0.206l0,-0.197l-0.001,-0.196l-0.002,-0.197l-0.002,-0.198l-0.003,-0.196l-0.003,-0.197l-0.005,-0.197l-0.004,-0.197l-0.005,-0.196l-0.006,-0.196l-0.007,-0.197l-0.007,-0.196l-0.008,-0.197l-0.008,-0.196l-0.009,-0.196l-0.009,-0.196l-0.01,-0.196l-0.011,-0.196l-0.011,-0.195l-0.012,-0.196l-0.013,-0.196l-0.013,-0.195l-0.014,-0.195l-0.014,-0.196l-0.015,-0.195l-0.015,-0.195l-0.017,-0.195l-0.016,-0.195l-0.018,-0.195l-0.018,-0.194l-0.018,-0.195l-0.019,-0.194l-0.02,-0.195l-0.02,-0.194l-0.021,-0.194l-0.022,-0.194l-0.022,-0.195l-0.022,-0.193l-0.024,-0.194l-0.023,-0.194l-0.025,-0.193l-0.025,-0.194l-0.026,-0.193l-0.026,-0.193l-0.027,-0.193l-0.027,-0.193l-0.028,-0.193l-0.029,-0.193l-0.029,-0.192l-0.03,-0.193l-0.03,-0.192l-0.031,-0.192l-0.031,-0.192l-0.032,-0.192l-0.033,-0.192l-0.033,-0.192l-0.034,-0.191l-0.035,-0.192l-0.035,-0.191l-0.035,-0.191l-0.036,-0.191l-0.037,-0.191l-0.037,-0.191l-0.038,-0.19l-0.039,-0.191l-0.039,-0.19l-0.04,-0.19l-0.04,-0.19l-0.041,-0.19l-0.041,-0.189l-0.042,-0.19l-0.043,-0.189l-0.043,-0.19l-0.043,-0.188l-0.045,-0.189l-0.045,-0.189l-0.045,-0.189l-0.046,-0.188l-0.046,-0.189l-0.048,-0.188l-0.047,-0.188l-0.048,-0.187l-0.049,-0.188l-0.05,-0.187l-0.05,-0.187l-0.05,-0.188l-0.051,-0.187l-0.052,-0.186l-0.052,-0.187l-0.053,-0.186l-0.053,-0.186l-0.054,-0.187l-0.055,-0.185l-0.055,-0.186l-0.056,-0.186l-0.056,-0.185l-0.057,-0.185l-0.057,-0.185l-0.058,-0.185l-0.058,-0.184l-0.059,-0.185l-0.06,-0.184l-0.06,-0.184l-0.06,-0.184l-0.062,-0.183l-0.062,-0.184l-0.062,-0.183l-0.063,-0.183l-0.063,-0.183l-0.064,-0.182l-0.065,-0.183l-0.065,-0.182l-0.066,-0.182l-0.066,-0.182l-0.067,-0.181l-0.067,-0.182l-0.068,-0.181l-0.068,-0.181l-0.069,-0.18l-0.07,-0.181l-0.07,-0.18l-0.071,-0.18l-0.071,-0.18l-0.071,-0.18l-0.073,-0.179l-0.073,-0.179l-0.073,-0.179l-0.074,-0.179l-0.074,-0.179l-0.075,-0.178l-0.076,-0.178l-0.076,-0.178l-0.077,-0.177l-0.077,-0.178l-0.078,-0.177l-0.078,-0.177l-0.079,-0.176l-0.079,-0.177l-0.08,-0.176l-0.08,-0.176l-0.081,-0.176l-0.082,-0.175l-0.082,-0.175l-0.083,-0.175l-0.083,-0.175l-0.083,-0.175l-0.085,-0.174l-0.084,-0.174l-0.086,-0.174l-0.085,-0.173l-0.087,-0.173l-0.087,-0.173l-0.087,-0.173l-0.088,-0.172l-0.088,-0.173l-0.09,-0.172l-0.089,-0.171l-0.09,-0.172l-0.091,-0.171l-0.091,-0.171l-0.091,-0.17l-0.093,-0.171l-0.092,-0.17l-0.094,-0.169l-0.093,-0.17l-0.095,-0.169l-0.094,-0.169l-0.096,-0.169l-0.096,-0.168l-0.096,-0.169l-0.097,-0.167l-0.097,-0.168l-0.098,-0.167l-0.099,-0.167l-0.099,-0.167l-0.099,-0.166l-0.1,-0.167l-0.101,-0.165l-0.101,-0.166l-0.101,-0.165l-0.103,-0.165l-0.102,-0.165l-0.104,-0.165l-0.103,-0.164l-0.104,-0.163l-0.105,-0.164l-0.105,-0.163l-0.106,-0.163l-0.106,-0.163l-0.107,-0.162l-0.107,-0.162l-0.108,-0.162l-0.108,-0.161l-0.109,-0.161l-0.109,-0.161l-0.11,-0.16l-0.11,-0.16l-0.111,-0.16l-0.112,-0.16l-0.111,-0.159l-0.113,-0.159l-0.113,-0.159l-0.113,-0.158l-0.114,-0.158l-0.114,-0.157l-0.115,-0.157l-0.116,-0.158l-0.116,-0.156l-0.116,-0.156l-0.117,-0.156l-0.117,-0.156l-0.118,-0.155l-0.119,-0.155l-0.119,-0.155l-0.119,-0.154l-0.12,-0.154l-0.12,-0.154l-0.121,-0.153l-0.122,-0.153l-0.122,-0.153l-0.122,-0.152l-0.123,-0.152l-0.123,-0.151l-0.124,-0.152l-0.125,-0.15l-0.124,-0.151l-0.126,-0.15l-0.126,-0.15l-0.126,-0.149l-0.127,-0.149l-0.127,-0.149l-0.128,-0.149l-0.129,-0.148l-0.128,-0.147l-0.13,-0.148l-0.129,-0.147l-0.131,-0.146l-0.131,-0.146l-0.131,-0.146l-0.132,-0.146l-0.132,-0.145l-0.132,-0.145l-0.134,-0.144l-0.134,-0.144l-0.134,-0.144l-0.134,-0.143l-0.135,-0.143l-0.136,-0.142l-0.136,-0.143l-0.137,-0.141l-0.137,-0.142l-0.138,-0.141l-0.138,-0.14l-0.138,-0.14l-0.139,-0.14l-0.14,-0.14l-0.14,-0.139l-0.14,-0.138l-0.14,-0.138l-0.141,-0.138l-0.142,-0.137l-0.141,-0.136l-0.143,-0.136l-0.142,-0.136l-0.143,-0.135l-0.143,-0.134l-0.144,-0.134l-0.144,-0.134l-0.144,-0.133l-0.145,-0.133l-0.145,-0.132l-0.146,-0.132l-0.146,-0.131l-0.146,-0.13l-0.146,-0.131l-0.147,-0.129l-0.148,-0.13l-0.147,-0.128l-0.148,-0.129l-0.149,-0.127l-0.148,-0.128l-0.15,-0.126l-0.149,-0.127l-0.15,-0.126l-0.15,-0.125l-0.151,-0.125l-0.151,-0.124l-0.151,-0.124l-0.151,-0.123l-0.152,-0.123l-0.152,-0.122l-0.153,-0.122l-0.153,-0.122l-0.153,-0.12l-0.154,-0.121l-0.154,-0.119l-0.154,-0.12l-0.155,-0.119l-0.155,-0.118l-0.155,-0.118l-0.156,-0.117l-0.156,-0.117l-0.156,-0.116l-0.157,-0.116l-0.157,-0.116l-0.157,-0.114l-0.158,-0.115l-0.158,-0.113l-0.158,-0.114l-0.158,-0.113l-0.159,-0.112l-0.159,-0.112l-0.16,-0.111l-0.16,-0.111l-0.16,-0.11l-0.16,-0.11l-0.161,-0.109l-0.161,-0.109l-0.162,-0.108l-0.161,-0.108l-0.162,-0.107l-0.163,-0.106l-0.162,-0.107l-0.163,-0.105l-0.163,-0.105l-0.164,-0.105l-0.164,-0.104l-0.164,-0.104l-0.164,-0.103l-0.165,-0.103l-0.165,-0.102l-0.165,-0.101l-0.166,-0.101l-0.166,-0.101l-0.166,-0.1l-0.167,-0.099l-0.166,-0.099l-0.167,-0.098l-0.168,-0.098l-0.167,-0.098l-0.168,-0.096l-0.168,-0.097l-0.169,-0.096l-0.168,-0.095l-0.169,-0.095l-0.17,-0.094l-0.169,-0.094l-0.17,-0.093l-0.17,-0.092l-0.17,-0.092l-0.171,-0.092l-0.171,-0.091l-0.171,-0.091l-0.171,-0.09l-0.172,-0.089l-0.172,-0.089l-0.172,-0.089l-0.173,-0.087l-0.173,-0.088l-0.173,-0.087l-0.173,-0.086l-0.173,-0.086l-0.174,-0.085l-0.174,-0.084l-0.174,-0.085l-0.175,-0.083l-0.175,-0.083l-0.175,-0.083l-0.175,-0.082l-0.175,-0.081l-0.176,-0.081l-0.176,-0.081l-0.176,-0.08l-0.177,-0.079l-0.176,-0.079l-0.177,-0.078l-0.177,-0.077l-0.178,-0.078l-0.177,-0.076l-0.178,-0.076l-0.178,-0.076l-0.179,-0.075l-0.178,-0.074l-0.179,-0.074l-0.179,-0.073l-0.179,-0.073l-0.18,-0.072l-0.179,-0.072l-0.18,-0.071l-0.18,-0.071l-0.181,-0.07l-0.18,-0.069l-0.181,-0.069l-0.181,-0.069l-0.181,-0.067l-0.181,-0.068l-0.182,-0.067l-0.182,-0.066l-0.182,-0.065l-0.182,-0.065l-0.182,-0.065l-0.183,-0.064l-0.183,-0.063l-0.183,-0.063l-0.183,-0.062l-0.184,-0.062l-0.183,-0.061l-0.184,-0.061l-0.184,-0.06l-0.184,-0.06l-0.185,-0.059l-0.184,-0.058l-0.185,-0.058l-0.185,-0.057l-0.185,-0.057l-0.186,-0.056l-0.185,-0.055l-0.186,-0.055l-0.186,-0.055l-0.186,-0.054l-0.186,-0.053l-0.186,-0.053l-0.187,-0.052l-0.187,-0.052l-0.187,-0.051l-0.187,-0.05l-0.187,-0.05l-0.188,-0.049l-0.187,-0.049l-0.188,-0.048l-0.188,-0.048l-0.188,-0.047l-0.188,-0.047l-0.189,-0.046l-0.189,-0.045l-0.188,-0.045l-0.189,-0.044l-0.189,-0.044l-0.19,-0.043l-0.189,-0.042l-0.19,-0.042l-0.189,-0.041l-0.19,-0.041l-0.19,-0.04l-0.19,-0.04l-0.191,-0.039l-0.19,-0.038l-0.191,-0.038l-0.19,-0.037l-0.191,-0.037l-0.191,-0.036l-0.192,-0.036l-0.191,-0.035l-0.191,-0.034l-0.192,-0.034l-0.191,-0.033l-0.192,-0.033l-0.192,-0.032l-0.192,-0.031l-0.193,-0.031l-0.192,-0.03l-0.193,-0.03l-0.192,-0.029l-0.193,-0.029l-0.193,-0.028l-0.193,-0.027l-0.193,-0.027l-0.193,-0.026l-0.193,-0.026l-0.194,-0.025l-0.193,-0.024l-0.194,-0.024l-0.194,-0.023l-0.194,-0.023l-0.194,-0.022l-0.194,-0.021l-0.194,-0.021l-0.195,-0.02l-0.194,-0.02l-0.195,-0.019l-0.194,-0.018l-0.195,-0.018l-0.195,-0.017l-0.195,-0.017l-0.195,-0.016l-0.195,-0.016l-0.195,-0.014l-0.196,-0.015l-0.195,-0.013l-0.196,-0.013l-0.195,-0.013l-0.196,-0.012l-0.196,-0.011l-0.196,-0.011l-0.196,-0.01l-0.196,-0.009l-0.196,-0.009l-0.196,-0.008l-0.197,-0.008l-0.196,-0.007l-0.196,-0.006l-0.197,-0.006l-0.196,-0.005l-0.197,-0.005l-0.197,-0.004l-0.197,-0.003l-0.197,-0.003l-0.197,-0.002l-0.197,-0.002l-0.197,0l-0.201,-0.001l-0.184,0l-0.344,-0.013l-0.343,-0.04l-0.338,-0.065l-0.332,-0.092l-0.325,-0.116l-0.314,-0.141l-0.303,-0.165l-0.29,-0.187l-0.274,-0.209l-0.257,-0.229l-0.239,-0.249l-0.22,-0.266l-0.198,-0.282l-0.176,-0.296l-0.153,-0.309l-0.129,-0.32l-0.104,-0.328l-0.078,-0.336l-0.053,-0.341l-0.026,-0.343l0,-0.345l0.026,-0.344l0.053,-0.341l0.078,-0.335l0.104,-0.329l0.129,-0.32l0.153,-0.309l0.176,-0.296l0.198,-0.282l0.22,-0.266l0.239,-0.248l0.257,-0.23l0.274,-0.208l0.29,-0.188l0.303,-0.165l0.314,-0.141l0.325,-0.116l0.332,-0.091l0.338,-0.066l0.343,-0.04l0.344,-0.013l0.193,0Z" style="fill:#000;"/><path d="M282.877,3.584l0.307,0l0.306,0.002l0.305,0.002l0.305,0.003l0.305,0.005l0.306,0.005l0.305,0.006l0.304,0.007l0.305,0.008l0.305,0.009l0.304,0.01l0.305,0.011l0.304,0.012l0.304,0.013l0.304,0.013l0.304,0.015l0.304,0.015l0.304,0.017l0.303,0.017l0.304,0.019l0.303,0.019l0.303,0.02l0.303,0.022l0.303,0.022l0.303,0.023l0.302,0.024l0.303,0.025l0.302,0.025l0.302,0.027l0.302,0.028l0.302,0.029l0.301,0.029l0.302,0.031l0.301,0.031l0.301,0.032l0.301,0.033l0.301,0.035l0.3,0.035l0.301,0.036l0.3,0.037l0.3,0.037l0.3,0.039l0.3,0.04l0.3,0.04l0.299,0.042l0.299,0.042l0.299,0.044l0.299,0.044l0.298,0.045l0.299,0.046l0.298,0.047l0.298,0.048l0.298,0.049l0.298,0.049l0.297,0.051l0.297,0.051l0.297,0.053l0.297,0.053l0.297,0.054l0.296,0.056l0.296,0.056l0.296,0.056l0.296,0.058l0.295,0.059l0.295,0.06l0.295,0.06l0.295,0.061l0.295,0.063l0.294,0.063l0.294,0.064l0.294,0.065l0.294,0.066l0.293,0.067l0.293,0.067l0.293,0.069l0.293,0.069l0.292,0.071l0.292,0.071l0.292,0.072l0.292,0.073l0.291,0.074l0.291,0.074l0.291,0.076l0.291,0.077l0.29,0.077l0.29,0.078l0.29,0.079l0.29,0.08l0.289,0.081l0.289,0.082l0.289,0.083l0.288,0.083l0.288,0.085l0.288,0.085l0.288,0.086l0.287,0.087l0.287,0.088l0.287,0.089l0.286,0.09l0.286,0.09l0.286,0.092l0.286,0.092l0.285,0.093l0.285,0.094l0.285,0.095l0.284,0.095l0.284,0.097l0.284,0.097l0.283,0.099l0.283,0.099l0.283,0.1l0.282,0.101l0.282,0.102l0.282,0.102l0.282,0.104l0.281,0.104l0.281,0.105l0.28,0.106l0.281,0.107l0.279,0.108l0.28,0.108l0.279,0.11l0.279,0.11l0.278,0.111l0.279,0.112l0.277,0.113l0.278,0.114l0.277,0.114l0.277,0.116l0.276,0.116l0.276,0.117l0.276,0.118l0.275,0.118l0.275,0.12l0.275,0.121l0.274,0.121l0.274,0.122l0.273,0.123l0.274,0.124l0.272,0.124l0.273,0.126l0.272,0.126l0.271,0.127l0.272,0.128l0.271,0.129l0.27,0.129l0.27,0.131l0.27,0.131l0.269,0.132l0.269,0.133l0.269,0.134l0.268,0.135l0.268,0.135l0.267,0.136l0.267,0.137l0.266,0.138l0.267,0.139l0.265,0.139l0.266,0.141l0.265,0.141l0.264,0.142l0.264,0.143l0.264,0.143l0.263,0.145l0.263,0.145l0.262,0.146l0.262,0.147l0.262,0.148l0.261,0.148l0.261,0.15l0.26,0.15l0.26,0.151l0.259,0.152l0.259,0.152l0.258,0.153l0.258,0.155l0.258,0.155l0.257,0.155l0.257,0.157l0.256,0.157l0.256,0.159l0.255,0.159l0.255,0.16l0.255,0.16l0.254,0.162l0.253,0.162l0.253,0.163l0.253,0.164l0.252,0.164l0.251,0.166l0.252,0.166l0.25,0.167l0.251,0.168l0.249,0.168l0.25,0.17l0.248,0.17l0.248,0.17l0.248,0.172l0.248,0.173l0.246,0.173l0.247,0.174l0.246,0.175l0.245,0.176l0.245,0.176l0.244,0.178l0.244,0.178l0.243,0.178l0.243,0.18l0.242,0.18l0.242,0.181l0.242,0.182l0.24,0.183l0.24,0.184l0.24,0.184l0.239,0.185l0.239,0.186l0.238,0.186l0.238,0.187l0.237,0.189l0.236,0.188l0.236,0.19l0.236,0.191l0.235,0.191l0.234,0.192l0.234,0.192l0.234,0.194l0.232,0.194l0.233,0.195l0.231,0.196l0.232,0.197l0.23,0.197l0.23,0.198l0.23,0.199l0.229,0.199l0.228,0.201l0.228,0.201l0.227,0.202l0.227,0.202l0.226,0.204l0.225,0.204l0.225,0.205l0.225,0.205l0.224,0.207l0.223,0.207l0.222,0.208l0.222,0.208l0.222,0.21l0.221,0.21l0.22,0.211l0.22,0.211l0.219,0.213l0.219,0.213l0.218,0.214l0.217,0.214l0.217,0.216l0.216,0.216l0.215,0.216l0.215,0.218l0.214,0.218l0.213,0.218l0.213,0.22l0.211,0.219l0.211,0.22l0.211,0.221l0.209,0.222l0.209,0.222l0.208,0.223l0.207,0.223l0.207,0.224l0.205,0.224l0.206,0.225l0.204,0.226l0.203,0.226l0.203,0.226l0.202,0.228l0.201,0.227l0.201,0.229l0.199,0.229l0.199,0.229l0.198,0.23l0.198,0.231l0.197,0.231l0.195,0.232l0.195,0.232l0.195,0.233l0.193,0.233l0.193,0.234l0.192,0.235l0.192,0.234l0.19,0.236l0.19,0.236l0.189,0.237l0.188,0.237l0.188,0.237l0.186,0.238l0.186,0.239l0.185,0.239l0.184,0.24l0.184,0.24l0.183,0.241l0.182,0.241l0.181,0.242l0.181,0.242l0.18,0.243l0.178,0.244l0.178,0.243l0.178,0.245l0.176,0.245l0.176,0.245l0.175,0.246l0.174,0.246l0.173,0.247l0.173,0.247l0.172,0.248l0.171,0.248l0.17,0.249l0.17,0.249l0.168,0.25l0.168,0.25l0.167,0.251l0.167,0.251l0.165,0.252l0.165,0.252l0.164,0.252l0.163,0.253l0.162,0.254l0.162,0.254l0.16,0.254l0.16,0.255l0.159,0.255l0.158,0.256l0.158,0.257l0.157,0.256l0.156,0.257l0.155,0.258l0.154,0.258l0.153,0.258l0.153,0.259l0.152,0.26l0.151,0.26l0.15,0.26l0.149,0.26l0.149,0.261l0.148,0.262l0.147,0.262l0.146,0.262l0.145,0.263l0.145,0.263l0.144,0.264l0.143,0.264l0.142,0.265l0.141,0.264l0.14,0.266l0.14,0.266l0.139,0.266l0.138,0.266l0.137,0.267l0.136,0.268l0.135,0.267l0.135,0.268l0.134,0.269l0.133,0.269l0.132,0.269l0.132,0.27l0.13,0.27l0.13,0.27l0.129,0.271l0.128,0.272l0.127,0.271l0.126,0.272l0.126,0.272l0.124,0.273l0.124,0.273l0.123,0.274l0.122,0.273l0.122,0.275l0.12,0.274l0.12,0.276l0.119,0.275l0.118,0.275l0.117,0.276l0.116,0.277l0.115,0.277l0.115,0.277l0.114,0.277l0.113,0.278l0.112,0.278l0.111,0.278l0.11,0.279l0.11,0.279l0.108,0.28l0.108,0.28l0.107,0.28l0.106,0.281l0.105,0.28l0.105,0.281l0.103,0.282l0.103,0.282l0.102,0.282l0.101,0.282l0.1,0.283l0.099,0.283l0.098,0.283l0.098,0.284l0.097,0.284l0.095,0.284l0.095,0.285l0.094,0.285l0.093,0.285l0.093,0.286l0.091,0.286l0.091,0.286l0.089,0.286l0.089,0.286l0.088,0.288l0.087,0.287l0.087,0.287l0.085,0.288l0.084,0.288l0.084,0.289l0.083,0.288l0.082,0.289l0.081,0.29l0.08,0.289l0.079,0.29l0.078,0.29l0.078,0.29l0.076,0.291l0.076,0.29l0.075,0.292l0.074,0.291l0.073,0.292l0.072,0.291l0.071,0.293l0.071,0.292l0.069,0.293l0.069,0.292l0.067,0.293l0.067,0.294l0.066,0.293l0.065,0.294l0.064,0.294l0.064,0.294l0.062,0.295l0.061,0.295l0.061,0.295l0.06,0.295l0.058,0.295l0.058,0.296l0.057,0.296l0.056,0.296l0.055,0.296l0.055,0.297l0.053,0.297l0.053,0.296l0.051,0.297l0.051,0.298l0.05,0.297l0.048,0.298l0.048,0.298l0.047,0.298l0.047,0.299l0.045,0.298l0.044,0.299l0.043,0.299l0.043,0.299l0.041,0.299l0.041,0.299l0.04,0.3l0.039,0.3l0.038,0.3l0.037,0.3l0.036,0.301l0.035,0.3l0.034,0.301l0.033,0.301l0.033,0.301l0.031,0.301l0.031,0.302l0.029,0.301l0.029,0.302l0.028,0.302l0.027,0.302l0.025,0.302l0.025,0.302l0.025,0.303l0.023,0.302l0.022,0.303l0.021,0.303l0.02,0.303l0.02,0.303l0.018,0.304l0.018,0.303l0.016,0.304l0.016,0.303l0.015,0.304l0.014,0.304l0.012,0.304l0.012,0.304l0.011,0.305l0.01,0.304l0.009,0.305l0.009,0.304l0.007,0.306l0.006,0.304l0.005,0.305l0.005,0.305l0.003,0.306l0.003,0.305l0.001,0.305l0.001,0.306l-0.001,0.292l0,-0.002l-0.018,0.403l-0.054,0.4l-0.09,0.394l-0.125,0.384l-0.158,0.371l-0.192,0.356l-0.222,0.337l-0.252,0.315l-0.279,0.292l-0.304,0.266l-0.327,0.237l-0.346,0.207l-0.364,0.176l-0.378,0.141l-0.389,0.108l-0.398,0.072l-0.402,0.036l-0.404,0l-0.402,-0.036l-0.397,-0.072l-0.389,-0.108l-0.378,-0.141l-0.364,-0.176l-0.347,-0.207l-0.326,-0.237l-0.304,-0.266l-0.28,-0.292l-0.251,-0.315l-0.223,-0.337l-0.191,-0.356l-0.159,-0.371l-0.125,-0.384l-0.089,-0.394l-0.055,-0.4l-0.018,-0.403l0,-0.002l0,-0.002l0.001,-0.286l-0.001,-0.278l-0.001,-0.278l-0.003,-0.277l-0.003,-0.277l-0.004,-0.277l-0.004,-0.278l-0.006,-0.277l-0.007,-0.276l-0.007,-0.277l-0.008,-0.277l-0.009,-0.276l-0.01,-0.277l-0.011,-0.276l-0.012,-0.276l-0.012,-0.276l-0.014,-0.277l-0.014,-0.275l-0.015,-0.276l-0.016,-0.276l-0.017,-0.275l-0.018,-0.276l-0.018,-0.275l-0.019,-0.275l-0.021,-0.275l-0.021,-0.275l-0.021,-0.274l-0.023,-0.275l-0.024,-0.275l-0.024,-0.274l-0.025,-0.274l-0.026,-0.274l-0.027,-0.274l-0.028,-0.274l-0.029,-0.273l-0.029,-0.274l-0.03,-0.273l-0.031,-0.273l-0.032,-0.273l-0.033,-0.273l-0.034,-0.273l-0.034,-0.272l-0.035,-0.272l-0.036,-0.273l-0.037,-0.272l-0.038,-0.272l-0.039,-0.271l-0.039,-0.272l-0.04,-0.271l-0.041,-0.271l-0.042,-0.271l-0.043,-0.271l-0.044,-0.271l-0.044,-0.27l-0.045,-0.27l-0.046,-0.27l-0.047,-0.271l-0.048,-0.269l-0.048,-0.27l-0.049,-0.269l-0.051,-0.269l-0.051,-0.269l-0.051,-0.269l-0.053,-0.268l-0.053,-0.268l-0.055,-0.269l-0.055,-0.268l-0.055,-0.267l-0.057,-0.268l-0.057,-0.267l-0.059,-0.267l-0.059,-0.267l-0.06,-0.267l-0.06,-0.266l-0.062,-0.266l-0.062,-0.266l-0.063,-0.266l-0.064,-0.266l-0.065,-0.265l-0.066,-0.265l-0.066,-0.265l-0.067,-0.265l-0.068,-0.264l-0.069,-0.264l-0.069,-0.264l-0.071,-0.264l-0.071,-0.263l-0.072,-0.263l-0.073,-0.263l-0.073,-0.263l-0.075,-0.262l-0.075,-0.263l-0.076,-0.262l-0.076,-0.261l-0.078,-0.262l-0.078,-0.261l-0.079,-0.261l-0.08,-0.26l-0.081,-0.261l-0.082,-0.26l-0.082,-0.26l-0.083,-0.26l-0.084,-0.259l-0.084,-0.259l-0.086,-0.259l-0.086,-0.258l-0.087,-0.259l-0.088,-0.258l-0.088,-0.257l-0.09,-0.258l-0.09,-0.257l-0.091,-0.257l-0.092,-0.256l-0.092,-0.256l-0.093,-0.256l-0.094,-0.256l-0.095,-0.255l-0.096,-0.256l-0.096,-0.254l-0.097,-0.255l-0.098,-0.254l-0.099,-0.254l-0.099,-0.253l-0.101,-0.253l-0.101,-0.253l-0.101,-0.253l-0.103,-0.253l-0.103,-0.252l-0.104,-0.251l-0.105,-0.252l-0.106,-0.251l-0.106,-0.25l-0.108,-0.251l-0.107,-0.25l-0.109,-0.25l-0.11,-0.249l-0.11,-0.249l-0.111,-0.249l-0.112,-0.248l-0.112,-0.248l-0.113,-0.248l-0.114,-0.248l-0.115,-0.247l-0.116,-0.247l-0.116,-0.246l-0.117,-0.246l-0.118,-0.245l-0.118,-0.246l-0.12,-0.245l-0.12,-0.244l-0.121,-0.245l-0.121,-0.244l-0.122,-0.243l-0.124,-0.243l-0.123,-0.243l-0.125,-0.243l-0.125,-0.242l-0.126,-0.242l-0.127,-0.241l-0.128,-0.241l-0.128,-0.241l-0.129,-0.24l-0.13,-0.239l-0.13,-0.24l-0.132,-0.239l-0.132,-0.239l-0.133,-0.238l-0.133,-0.238l-0.134,-0.237l-0.135,-0.238l-0.136,-0.237l-0.136,-0.236l-0.138,-0.236l-0.137,-0.235l-0.139,-0.236l-0.14,-0.234l-0.14,-0.235l-0.141,-0.234l-0.141,-0.233l-0.142,-0.233l-0.143,-0.233l-0.144,-0.233l-0.145,-0.232l-0.145,-0.231l-0.146,-0.231l-0.147,-0.231l-0.147,-0.23l-0.148,-0.23l-0.149,-0.229l-0.15,-0.229l-0.15,-0.229l-0.151,-0.228l-0.152,-0.228l-0.152,-0.227l-0.153,-0.227l-0.154,-0.226l-0.155,-0.226l-0.156,-0.226l-0.156,-0.224l-0.156,-0.225l-0.158,-0.224l-0.158,-0.224l-0.159,-0.223l-0.16,-0.223l-0.16,-0.222l-0.161,-0.222l-0.162,-0.222l-0.162,-0.221l-0.164,-0.22l-0.164,-0.221l-0.164,-0.219l-0.165,-0.219l-0.166,-0.219l-0.167,-0.218l-0.168,-0.218l-0.168,-0.217l-0.169,-0.217l-0.169,-0.216l-0.171,-0.216l-0.17,-0.215l-0.172,-0.215l-0.172,-0.215l-0.174,-0.214l-0.173,-0.213l-0.175,-0.213l-0.175,-0.212l-0.176,-0.212l-0.176,-0.212l-0.177,-0.211l-0.179,-0.21l-0.178,-0.21l-0.179,-0.209l-0.18,-0.209l-0.181,-0.209l-0.182,-0.208l-0.182,-0.207l-0.182,-0.207l-0.184,-0.207l-0.184,-0.206l-0.185,-0.205l-0.185,-0.205l-0.187,-0.204l-0.187,-0.204l-0.187,-0.203l-0.189,-0.203l-0.188,-0.202l-0.19,-0.202l-0.19,-0.201l-0.191,-0.201l-0.192,-0.2l-0.192,-0.2l-0.193,-0.199l-0.194,-0.198l-0.195,-0.198l-0.195,-0.198l-0.195,-0.197l-0.197,-0.196l-0.197,-0.195l-0.197,-0.196l-0.198,-0.194l-0.199,-0.193l-0.199,-0.193l-0.199,-0.192l-0.201,-0.192l-0.2,-0.191l-0.201,-0.19l-0.202,-0.19l-0.202,-0.188l-0.203,-0.189l-0.203,-0.187l-0.204,-0.187l-0.205,-0.186l-0.205,-0.185l-0.205,-0.185l-0.206,-0.184l-0.206,-0.183l-0.207,-0.183l-0.208,-0.182l-0.208,-0.181l-0.208,-0.181l-0.209,-0.18l-0.209,-0.179l-0.21,-0.179l-0.211,-0.177l-0.211,-0.178l-0.211,-0.176l-0.212,-0.176l-0.213,-0.175l-0.213,-0.174l-0.213,-0.174l-0.214,-0.173l-0.214,-0.172l-0.215,-0.172l-0.216,-0.17l-0.215,-0.171l-0.217,-0.169l-0.217,-0.169l-0.217,-0.168l-0.218,-0.167l-0.218,-0.167l-0.219,-0.166l-0.219,-0.165l-0.219,-0.164l-0.22,-0.164l-0.221,-0.163l-0.221,-0.163l-0.221,-0.161l-0.222,-0.161l-0.223,-0.161l-0.223,-0.159l-0.223,-0.159l-0.223,-0.158l-0.225,-0.158l-0.224,-0.156l-0.225,-0.156l-0.226,-0.156l-0.226,-0.154l-0.226,-0.154l-0.227,-0.153l-0.227,-0.152l-0.228,-0.152l-0.228,-0.151l-0.229,-0.15l-0.229,-0.15l-0.229,-0.149l-0.23,-0.148l-0.23,-0.147l-0.231,-0.146l-0.231,-0.146l-0.232,-0.145l-0.231,-0.145l-0.233,-0.144l-0.233,-0.143l-0.233,-0.142l-0.233,-0.141l-0.234,-0.141l-0.235,-0.14l-0.235,-0.139l-0.235,-0.139l-0.235,-0.138l-0.236,-0.137l-0.237,-0.136l-0.236,-0.136l-0.238,-0.135l-0.237,-0.134l-0.238,-0.133l-0.239,-0.133l-0.238,-0.132l-0.239,-0.131l-0.24,-0.131l-0.24,-0.13l-0.24,-0.128l-0.241,-0.129l-0.241,-0.127l-0.241,-0.127l-0.242,-0.126l-0.242,-0.125l-0.242,-0.125l-0.243,-0.123l-0.244,-0.123l-0.243,-0.123l-0.244,-0.121l-0.244,-0.121l-0.245,-0.12l-0.245,-0.119l-0.245,-0.119l-0.246,-0.117l-0.246,-0.117l-0.246,-0.116l-0.247,-0.116l-0.247,-0.115l-0.248,-0.114l-0.248,-0.113l-0.248,-0.112l-0.248,-0.112l-0.249,-0.111l-0.249,-0.11l-0.249,-0.109l-0.25,-0.109l-0.25,-0.108l-0.251,-0.107l-0.251,-0.106l-0.251,-0.106l-0.251,-0.105l-0.252,-0.104l-0.252,-0.103l-0.252,-0.102l-0.253,-0.102l-0.253,-0.101l-0.253,-0.1l-0.254,-0.1l-0.254,-0.098l-0.254,-0.098l-0.254,-0.097l-0.255,-0.096l-0.255,-0.096l-0.256,-0.095l-0.255,-0.094l-0.256,-0.093l-0.257,-0.092l-0.256,-0.092l-0.257,-0.091l-0.257,-0.09l-0.258,-0.089l-0.257,-0.089l-0.259,-0.087l-0.258,-0.087l-0.258,-0.086l-0.259,-0.086l-0.259,-0.084l-0.26,-0.084l-0.259,-0.083l-0.26,-0.082l-0.26,-0.082l-0.261,-0.08l-0.261,-0.08l-0.261,-0.079l-0.261,-0.078l-0.261,-0.078l-0.262,-0.077l-0.262,-0.075l-0.262,-0.076l-0.263,-0.074l-0.263,-0.073l-0.263,-0.073l-0.263,-0.072l-0.263,-0.071l-0.264,-0.07l-0.264,-0.07l-0.264,-0.068l-0.265,-0.068l-0.264,-0.067l-0.265,-0.067l-0.265,-0.065l-0.266,-0.065l-0.265,-0.064l-0.266,-0.063l-0.266,-0.062l-0.266,-0.061l-0.267,-0.061l-0.267,-0.06l-0.266,-0.059l-0.268,-0.058l-0.267,-0.058l-0.268,-0.056l-0.267,-0.056l-0.268,-0.055l-0.268,-0.054l-0.269,-0.053l-0.268,-0.053l-0.269,-0.051l-0.269,-0.051l-0.269,-0.05l-0.27,-0.05l-0.269,-0.048l-0.27,-0.048l-0.27,-0.046l-0.27,-0.046l-0.271,-0.045l-0.27,-0.045l-0.271,-0.043l-0.271,-0.043l-0.271,-0.042l-0.271,-0.041l-0.271,-0.04l-0.272,-0.039l-0.272,-0.039l-0.271,-0.037l-0.273,-0.037l-0.272,-0.036l-0.272,-0.035l-0.273,-0.035l-0.273,-0.033l-0.272,-0.033l-0.273,-0.032l-0.274,-0.031l-0.273,-0.03l-0.274,-0.029l-0.273,-0.029l-0.274,-0.027l-0.274,-0.027l-0.274,-0.026l-0.274,-0.025l-0.275,-0.025l-0.274,-0.023l-0.275,-0.023l-0.275,-0.022l-0.275,-0.02l-0.275,-0.021l-0.275,-0.019l-0.275,-0.018l-0.276,-0.018l-0.275,-0.016l-0.276,-0.016l-0.276,-0.015l-0.276,-0.014l-0.276,-0.014l-0.276,-0.012l-0.276,-0.012l-0.277,-0.01l-0.276,-0.01l-0.277,-0.009l-0.277,-0.009l-0.277,-0.007l-0.277,-0.006l-0.277,-0.006l-0.277,-0.005l-0.277,-0.003l-0.277,-0.004l-0.278,-0.002l-0.277,-0.001l-0.282,0l-0.255,0l-0.403,-0.019l-0.4,-0.054l-0.394,-0.09l-0.384,-0.124l-0.371,-0.159l-0.356,-0.191l-0.337,-0.223l-0.315,-0.252l-0.292,-0.279l-0.266,-0.304l-0.237,-0.326l-0.207,-0.347l-0.176,-0.364l-0.141,-0.378l-0.108,-0.389l-0.072,-0.397l-0.036,-0.403l0,-0.403l0.036,-0.402l0.072,-0.398l0.108,-0.389l0.141,-0.378l0.176,-0.364l0.207,-0.346l0.237,-0.327l0.266,-0.304l0.292,-0.279l0.315,-0.252l0.337,-0.222l0.356,-0.192l0.371,-0.158l0.384,-0.125l0.394,-0.09l0.4,-0.054l0.403,-0.018l0.261,0Z" style="fill:#000;"/></g></svg>